<?xml version="1.0" standalone="no"?>
<!DOCTYPE svg PUBLIC "-//W3C//DTD SVG 20010904//EN"
 "http://www.w3.org/TR/2001/REC-SVG-20010904/DTD/svg10.dtd">
<svg version="1.0" xmlns="http://www.w3.org/2000/svg"
 width="512.000000pt" height="512.000000pt" viewBox="0 0 512.000000 512.000000"
 preserveAspectRatio="xMidYMid meet">
<metadata>
Created by potrace 1.14, written by Peter Selinger 2001-2017
</metadata>
<g transform="translate(0.000000,512.000000) scale(0.100000,-0.100000)"
fill="#000000" stroke="none">
<path d="M1500 4784 c-135 -40 -248 -148 -314 -298 -81 -184 -84 -468 -6 -702
60 -178 194 -372 325 -466 108 -77 193 -109 305 -114 160 -6 288 63 389 209
52 76 71 126 101 262 33 151 17 375 -39 537 -98 286 -309 513 -532 573 -61 17
-173 16 -229 -1z"/>
<path d="M3425 4793 c-101 -18 -236 -96 -328 -189 -308 -311 -389 -872 -173
-1194 139 -207 375 -265 601 -148 200 103 374 345 438 608 27 110 29 121 32
245 3 107 -3 164 -29 280 -9 44 -48 129 -82 182 -107 167 -278 247 -459 216z"/>
<path d="M376 3509 c-57 -14 -156 -65 -193 -99 -75 -69 -133 -166 -164 -275
-20 -72 -18 -252 5 -345 52 -211 199 -401 379 -488 100 -49 158 -62 262 -58
382 16 575 482 369 890 -88 174 -233 306 -398 360 -59 20 -207 29 -260 15z"/>
<path d="M4513 3503 c-201 -51 -384 -232 -468 -464 -32 -90 -40 -138 -40 -249
1 -159 32 -262 111 -366 97 -127 222 -185 384 -179 252 10 489 209 578 486 32
99 35 117 37 221 8 284 -142 505 -379 558 -59 13 -156 10 -223 -7z"/>
<path d="M2404 2865 c-100 -18 -243 -68 -363 -127 -101 -50 -320 -189 -385
-245 -18 -15 -52 -44 -76 -63 -66 -52 -153 -134 -251 -235 -355 -367 -607
-797 -672 -1149 -19 -100 -16 -263 7 -338 28 -94 99 -188 203 -269 47 -36 183
-84 293 -102 84 -15 346 -16 415 -3 101 20 226 50 265 63 25 8 50 16 55 17 6
1 75 23 155 48 292 94 360 107 530 104 144 -3 226 -19 425 -82 77 -25 154 -49
170 -54 17 -4 62 -18 100 -30 72 -22 113 -32 225 -55 14 -2 39 -7 55 -11 66
-13 331 -12 410 2 349 62 532 272 511 589 -9 136 -26 213 -83 365 -44 118 -96
224 -180 363 -62 103 -214 313 -284 393 -133 151 -286 300 -430 419 -173 143
-425 289 -613 354 -162 57 -330 73 -482 46z"/>
</g>
</svg>
